<svg xmlns="http://www.w3.org/2000/svg" width="522" height="330" viewBox="0 0 522 330" font-family="Arial, Helvetica, sans-serif">
<rect x="0" y="0" width="522" height="330" fill="white"/>
<text x="261.0" y="10" text-anchor="middle" font-size="16" fill="#16314f" font-weight="bold">Original figure</text>
<rect x="181.0" y="15" width="160" height="100" fill="#f7f9fc" stroke="#2b4c7e" stroke-width="2" rx="6"/>
<text x="261.0" y="65.0" text-anchor="middle" dominant-baseline="central" font-size="60" font-weight="bold" fill="#16314f">R</text>
<text x="261.0" y="141" text-anchor="middle" font-size="15" fill="#16314f" font-weight="bold">Which option below is the correct MIRROR IMAGE</text>
<text x="261.0" y="160" text-anchor="middle" font-size="15" fill="#16314f" font-weight="bold">(reflected left-right) of the figure above?</text>
<rect x="20.0" y="179" width="110" height="100" fill="white" stroke="#a9b7c9" stroke-width="2" rx="6"/>
<g transform="translate(150.0,0) scale(-1,1)">
<text x="75.0" y="229.0" text-anchor="middle" dominant-baseline="central" font-size="52" font-weight="bold" fill="#16314f">R</text>
</g>
<text x="75.0" y="301" text-anchor="middle" font-size="18" font-weight="bold" fill="#16314f">A</text>
<rect x="144.0" y="179" width="110" height="100" fill="white" stroke="#a9b7c9" stroke-width="2" rx="6"/>
<g>
<text x="199.0" y="229.0" text-anchor="middle" dominant-baseline="central" font-size="52" font-weight="bold" fill="#16314f">R</text>
</g>
<text x="199.0" y="301" text-anchor="middle" font-size="18" font-weight="bold" fill="#16314f">B</text>
<rect x="268.0" y="179" width="110" height="100" fill="white" stroke="#a9b7c9" stroke-width="2" rx="6"/>
<g transform="translate(0,458.0) scale(1,-1)">
<text x="323.0" y="229.0" text-anchor="middle" dominant-baseline="central" font-size="52" font-weight="bold" fill="#16314f">R</text>
</g>
<text x="323.0" y="301" text-anchor="middle" font-size="18" font-weight="bold" fill="#16314f">C</text>
<rect x="392.0" y="179" width="110" height="100" fill="white" stroke="#a9b7c9" stroke-width="2" rx="6"/>
<g transform="rotate(180,447.0,229.0)">
<text x="447.0" y="229.0" text-anchor="middle" dominant-baseline="central" font-size="52" font-weight="bold" fill="#16314f">R</text>
</g>
<text x="447.0" y="301" text-anchor="middle" font-size="18" font-weight="bold" fill="#16314f">D</text>
</svg>